name rise30.9205peak61.366fall85.3838.mot
datacolumns 19
datarows 17
range 9.56163000000000 9.58830200000000
endheader
time	ground_force1_vx	ground_force1_vy	ground_force1_vz	ground_force1_px	ground_force1_py	ground_force1_pz	ground_force2_vx	ground_force2_vy	ground_force2_vz	ground_force2_px	ground_force2_py	ground_force2_pz	ground_torque1_x	ground_torque1_y	ground_torque1_z	ground_torque2_x	ground_torque2_y	ground_torque2_z	
9.56163000000000	-48.04153300000000	824.06129299999998	58.00115600000000	0.12313300000000	0.00000000000000	0.12124500000000	-7.35724400000000	31.16849400000000	7.76882200000000	0.36952700000000	0.00000000000000	-0.05071100000000	0.00000000000000	23.32821400000000	0.00000000000000	0.00000000000000	5.48656500000000	0.00000000000000	
9.56331000000000	-48.11530300000000	821.14905599999997	57.82955300000000	0.12270600000000	0.00000000000000	0.12116700000000	-8.38369700000000	36.94151700000000	8.92182900000000	0.37350900000000	0.00000000000000	-0.05135600000000	0.00000000000000	23.21331900000000	0.00000000000000	0.00000000000000	6.34343800000000	0.00000000000000	
9.56496100000000	-48.20029000000000	818.10779200000002	57.63892900000000	0.12228400000000	0.00000000000000	0.12108500000000	-9.31523400000000	42.75436000000000	9.99513100000000	0.37718100000000	0.00000000000000	-0.05197900000000	0.00000000000000	23.09882000000000	0.00000000000000	0.00000000000000	7.15245000000000	0.00000000000000	
9.56663700000000	-48.29743300000000	814.93897900000002	57.42914000000000	0.12186700000000	0.00000000000000	0.12099900000000	-10.12227900000000	48.50369300000000	10.95813100000000	0.38056400000000	0.00000000000000	-0.05258400000000	0.00000000000000	22.98489800000000	0.00000000000000	0.00000000000000	7.89051600000000	0.00000000000000	
9.56829700000000	-48.40763000000000	811.64415599999995	57.20006500000000	0.12145400000000	0.00000000000000	0.12090900000000	-10.78289000000000	54.10687500000000	11.78767200000000	0.38367900000000	0.00000000000000	-0.05317400000000	0.00000000000000	22.87172700000000	0.00000000000000	0.00000000000000	8.53966800000000	0.00000000000000	
9.56996900000000	-48.53173000000000	808.22490900000003	56.95161200000000	0.12104500000000	0.00000000000000	0.12081500000000	-11.28351500000000	59.50590300000000	12.46888900000000	0.38654200000000	0.00000000000000	-0.05375000000000	0.00000000000000	22.75947100000000	0.00000000000000	0.00000000000000	9.08780200000000	0.00000000000000	
9.57163400000000	-48.67053200000000	804.68286499999999	56.68371300000000	0.12063700000000	0.00000000000000	0.12071700000000	-11.61896000000000	64.66872400000000	12.99524700000000	0.38917100000000	0.00000000000000	-0.05431400000000	0.00000000000000	22.64828200000000	0.00000000000000	0.00000000000000	9.52884200000000	0.00000000000000	
9.57330500000000	-48.82477700000000	801.01968199999999	56.39632700000000	0.12023100000000	0.00000000000000	0.12061500000000	-11.79166500000000	69.58819800000001	13.36790400000000	0.39157800000000	0.00000000000000	-0.05486900000000	0.00000000000000	22.53830200000000	0.00000000000000	0.00000000000000	9.86237600000000	0.00000000000000	
9.57497000000000	-48.99514600000000	797.23703999999998	56.08943900000000	0.11982500000000	0.00000000000000	0.12050800000000	-11.81048900000000	74.27918200000001	13.59454100000000	0.39377700000000	0.00000000000000	-0.05541500000000	0.00000000000000	22.42966200000000	0.00000000000000	0.00000000000000	10.09288700000000	0.00000000000000	
9.57662900000000	-49.18225300000000	793.33662900000002	55.76306100000000	0.11941700000000	0.00000000000000	0.12039700000000	-11.68916600000000	78.77429900000000	13.68785700000000	0.39578100000000	0.00000000000000	-0.05595300000000	0.00000000000000	22.32248000000000	0.00000000000000	0.00000000000000	10.22870300000000	0.00000000000000	
9.57829400000000	-49.38664300000000	789.32014600000002	55.41723200000000	0.11900800000000	0.00000000000000	0.12028100000000	-11.44463100000000	83.11897399999999	13.66392200000000	0.39760000000000	0.00000000000000	-0.05648400000000	0.00000000000000	22.21686200000000	0.00000000000000	0.00000000000000	10.28081400000000	0.00000000000000	
9.57996000000000	-49.60878700000000	785.18927900000006	55.05201600000000	0.11859600000000	0.00000000000000	0.12016100000000	-11.09537400000000	87.36627300000001	13.54052500000000	0.39924500000000	0.00000000000000	-0.05700900000000	0.00000000000000	22.11290100000000	0.00000000000000	0.00000000000000	10.26167400000000	0.00000000000000	
9.58163100000000	-49.84907700000000	780.94570599999997	54.66750200000000	0.11818000000000	0.00000000000000	0.12003700000000	-10.65994300000000	91.57199700000000	13.33567700000000	0.40072700000000	0.00000000000000	-0.05752800000000	0.00000000000000	22.01067700000000	0.00000000000000	0.00000000000000	10.18408600000000	0.00000000000000	
9.58330700000000	-50.10782400000000	776.59108100000003	54.26380700000000	0.11775900000000	0.00000000000000	0.11990800000000	-10.15570000000000	95.79038300000001	13.06634400000000	0.40205300000000	0.00000000000000	-0.05804100000000	0.00000000000000	21.91025800000000	0.00000000000000	0.00000000000000	10.06025100000000	0.00000000000000	
9.58496700000000	-50.38525100000000	772.12703099999999	53.84107100000000	0.11733200000000	0.00000000000000	0.11977400000000	-9.59788100000000	100.07063599999999	12.74748300000000	0.40323400000000	0.00000000000000	-0.05854900000000	0.00000000000000	21.81169500000000	0.00000000000000	0.00000000000000	9.90102800000000	0.00000000000000	
9.58663500000000	-50.68149300000000	767.55514900000003	53.39946100000000	0.11689900000000	0.00000000000000	0.11963600000000	-8.99897500000000	104.45442400000000	12.39138600000000	0.40427800000000	0.00000000000000	-0.05905100000000	0.00000000000000	21.71502800000000	0.00000000000000	0.00000000000000	9.71543300000000	0.00000000000000	
9.58830200000000	-50.99659500000000	762.87698399999999	52.93916700000000	0.11645700000000	0.00000000000000	0.11949400000000	-8.36841500000000	108.97434500000000	12.00735400000000	0.40519300000000	0.00000000000000	-0.05954900000000	0.00000000000000	21.62028100000000	0.00000000000000	0.00000000000000	9.51035700000000	0.00000000000000	
